<?xml version="1.0" ?><!DOCTYPE svg  PUBLIC '-//W3C//DTD SVG 1.1//EN'  'http://www.w3.org/Graphics/SVG/1.1/DTD/svg11.dtd'><svg enable-background="new 0 0 512 512" height="512px" id="Layer_1" version="1.1" viewBox="0 0 512 512" width="512px" xml:space="preserve" xmlns="http://www.w3.org/2000/svg" xmlns:xlink="http://www.w3.org/1999/xlink"><g><g><g><g><g><path d="M496.95,512c-0.074,0-0.191,0-0.294,0H15.051c-5.681,0-10.876-3.206-13.44-8.28        c-2.558-5.073-2.036-11.161,1.337-15.734l78.22-105.854c1.366-1.853,3.146-3.367,5.188-4.427l43.379-22.44l105.586-127.308        c4.078-4.927,10.81-6.678,16.791-4.516l88.84,32.78c2.851,1.059,5.306,2.941,7.069,5.411l159.437,224.516        c2.808,2.734,4.542,6.559,4.542,10.793C512,505.265,505.269,512,496.95,512z M44.894,481.883h422.603L326.181,282.867        l-74.494-27.485L150.943,376.854c-1.286,1.559-2.873,2.822-4.666,3.764l-42.982,22.235L44.894,481.883z" fill="#414042"/></g></g><g><path d="M139.369,382.294c-5.592,0-10.964-3.133-13.558-8.515c-3.616-7.484-0.479-16.485,7.003-20.104       l116.492-56.308c7.488-3.604,16.483-0.472,20.099,7.014s0.485,16.486-7.011,20.104l-116.485,56.309       C143.8,381.81,141.566,382.294,139.369,382.294z" fill="#414042"/></g></g><g><path d="M101.06,403.883c-3.901,0-7.753-1.515-10.641-4.397C46.18,355.279,21.812,296.484,21.812,233.94      C21.812,104.942,126.7,0,255.618,0c128.927,0,233.807,104.942,233.807,233.94c0,59.633-22.634,116.53-63.713,160.206      c-3.102,3.279-7.54,4.883-11.993,4.706c-4.512-0.322-8.627-2.633-11.244-6.309L325.945,284.75l-74.494-27.485L150.708,378.735      c-1.285,1.559-2.873,2.824-4.666,3.764l-38.073,19.707C105.778,403.338,103.412,403.883,101.06,403.883z M255.618,30.118      c-112.325,0-203.706,91.441-203.706,203.823c0,50.839,18.475,98.839,52.256,136.31l25.331-13.104l105.586-127.308      c4.086-4.912,10.817-6.677,16.792-4.514l88.839,32.778c2.852,1.06,5.306,2.941,7.069,5.411l68.107,95.912      c28.131-35.823,43.431-79.734,43.431-125.485C459.324,121.559,367.937,30.118,255.618,30.118z" fill="#414042"/></g></g></g></svg>